<svg width="930" height="247" viewBox="0 0 930 247" fill="none" xmlns="http://www.w3.org/2000/svg">
<path d="M0 0H17.1124L17.1133 123.347H0.000883915L0 0Z" fill="#2470ff"/>
<path d="M45.6307 38.0614H61.5082V48.4578C63.1548 40.3522 72.5049 36.2993 89.5585 36.2993C100.496 36.2993 108.141 38.2964 112.493 42.2905C116.962 46.1671 119.196 52.3345 119.196 60.7926V123.347H103.319V61.6736C103.319 59.4416 103.143 57.6208 102.79 56.2111C102.437 54.8014 101.731 53.3917 100.673 51.982C98.3205 49.0452 93.0868 47.5768 84.9716 47.5768C78.7383 47.5768 73.9162 48.0467 70.5055 48.9865C67.2124 49.8088 64.8601 51.2185 63.4488 53.2155C62.1551 55.2126 61.5082 58.0319 61.5082 61.6736V123.347H45.6307V38.0614Z" fill="#2470ff"/>
<path d="M177.28 125.109C168.812 125.109 162.167 124.287 157.345 122.642C152.523 120.88 148.995 118.061 146.76 114.184C144.643 110.308 143.585 104.904 143.585 97.9729V60.4401C143.585 51.8646 146.231 45.6972 151.523 41.9381C156.933 38.1789 165.813 36.2993 178.162 36.2993C185.572 36.2993 191.923 37.2391 197.215 39.1187C202.625 40.9983 205.389 43.7002 205.507 47.2244H205.86L205.507 25.5505V0H221.384V123.347H205.86V113.303C205.86 116.475 203.331 119.177 198.274 121.409C193.217 123.876 186.219 125.109 177.28 125.109ZM180.632 114.184C189.453 114.184 195.804 113.186 199.685 111.189C203.566 109.192 205.507 105.785 205.507 100.969V58.8542C205.507 51.2185 197.686 47.4006 182.044 47.4006C172.635 47.4006 166.519 48.1054 163.696 49.5151C160.756 50.9248 159.286 54.0378 159.286 58.8542V100.969C159.286 105.785 160.873 109.192 164.049 111.189C167.342 113.186 172.87 114.184 180.632 114.184Z" fill="#2470ff"/>
<path d="M283.534 125.109C257.424 125.109 244.37 116.416 244.37 99.0302V65.374C244.37 55.0364 247.31 47.6355 253.19 43.1715C259.189 38.5901 268.833 36.2993 282.123 36.2993C294.707 36.2993 303.763 38.4726 309.291 42.8191C314.936 47.1656 317.759 54.6839 317.759 65.374V84.2285H260.423V97.0919C260.423 102.966 262.482 107.195 266.598 109.779C270.714 112.363 277.065 113.656 285.651 113.656C293.766 113.656 303.351 112.246 314.407 109.427V121.585C303.587 123.935 293.296 125.109 283.534 125.109ZM301.881 73.8321V60.4401C301.881 55.2713 300.294 51.7471 297.118 49.8675C294.06 47.8705 288.768 46.8719 281.241 46.8719C273.949 46.8719 268.656 47.8705 265.363 49.8675C262.07 51.7471 260.423 55.2713 260.423 60.4401V73.8321H301.881Z" fill="#2470ff"/>
<path d="M361.714 79.4709L331.723 38.0614H349.189L370.358 69.2507L391.705 38.0614H409.17L379.179 79.4709L410.934 123.347H393.469L370.358 89.6911L347.424 123.347H329.959L361.714 79.4709Z" fill="#2470ff"/>
<path d="M424.962 8.98673H464.127L492.353 90.7483L520.227 8.98673H557.098V123.347H532.223V38.7663H531.694L502.762 123.347H480.71L450.895 38.7663H450.19V123.347H424.962V8.98673Z" fill="#2470ff"/>
<path d="M604.849 125.109C596.852 125.109 590.853 124.404 586.855 122.995C582.974 121.468 580.21 118.824 578.563 115.065C577.034 111.189 576.27 105.433 576.27 97.7967C576.27 90.9833 577.093 85.6382 578.74 81.7616C580.504 77.885 583.268 75.1243 587.031 73.4797C590.912 71.7176 596.205 70.8365 602.909 70.8365H631.841V65.0216C631.841 61.3799 631.312 58.678 630.253 56.9159C629.312 55.1538 627.489 53.9204 624.784 53.2155C622.197 52.5107 618.257 52.1583 612.964 52.1583C605.673 52.1583 595.676 52.8631 582.974 54.2728V38.0614C592.265 36.8867 603.144 36.2993 615.611 36.2993C626.548 36.2993 634.958 37.1216 640.838 38.7663C646.836 40.4109 651.129 43.2303 653.717 47.2244C656.304 51.2185 657.598 57.0334 657.598 64.6692V123.347H632.37V115.594C630.371 119.001 627.666 121.409 624.255 122.819C620.844 124.346 614.376 125.109 604.849 125.109ZM614.905 109.074C620.08 109.074 623.784 108.898 626.019 108.546C627.666 108.311 628.783 107.958 629.371 107.488C630.077 107.018 630.665 106.255 631.135 105.198C631.606 104.375 631.841 103.142 631.841 101.497V84.9334H614.199C610.201 84.9334 607.378 85.2271 605.731 85.8144C604.085 86.2843 602.967 87.3416 602.379 88.9862C601.791 90.5134 601.497 93.274 601.497 97.2681C601.497 101.145 601.791 103.847 602.379 105.374C602.967 106.901 604.085 107.899 605.731 108.369C607.495 108.839 610.553 109.074 614.905 109.074Z" fill="#2470ff"/>
<path d="M680.259 0H706.016V123.347H680.259V0ZM707.074 75.418L735.125 38.0614H764.586L734.948 75.2418L767.056 123.347H737.947L707.074 75.418Z" fill="#2470ff"/>
<path d="M818.4 125.109C788.174 125.109 773.061 115.888 773.061 97.4443V66.7837C773.061 56.0936 776.472 48.3404 783.293 43.524C790.232 38.7075 800.876 36.2993 815.225 36.2993C828.75 36.2993 838.629 38.6488 844.863 43.3477C851.214 47.9292 854.389 55.7412 854.389 66.7837V87.5765H798.994V95.3298C798.994 100.264 800.758 103.788 804.287 105.902C807.815 108.017 814.166 109.074 823.34 109.074C831.808 109.074 841.334 107.841 851.919 105.374V121.761C841.452 123.993 830.279 125.109 818.4 125.109ZM829.867 72.9511V60.6163C829.867 57.797 828.691 55.6825 826.339 54.2728C824.104 52.8631 820.282 52.1583 814.872 52.1583C808.638 52.1583 804.463 52.8631 802.346 54.2728C800.111 55.7999 798.994 57.9145 798.994 60.6163V72.9511H829.867Z" fill="#2470ff"/>
<path d="M874.076 38.0614H898.598V53.0393C898.598 50.3374 899.715 47.6943 901.95 45.1098C904.185 42.5254 907.007 40.4109 910.418 38.7663C913.946 37.1216 917.416 36.2993 920.826 36.2993H930V57.6208H921.179C913.887 57.6208 908.477 58.7368 904.949 60.9688C901.538 63.2008 899.833 66.9012 899.833 72.07V123.347H874.076V38.0614Z" fill="#2470ff"/>
<path d="M191.256 202.792L185.714 202.799C185.384 201.209 184.809 199.812 183.988 198.608C183.182 197.405 182.197 196.395 181.034 195.579C179.886 194.747 178.611 194.125 177.21 193.71C175.809 193.295 174.349 193.089 172.829 193.091C170.058 193.094 167.548 193.796 165.3 195.197C163.067 196.597 161.29 198.659 159.967 201.382C158.659 204.104 158.008 207.443 158.013 211.398C158.018 215.354 158.677 218.691 159.992 221.41C161.321 224.13 163.104 226.187 165.341 227.582C167.592 228.977 170.104 229.673 172.875 229.669C174.394 229.667 175.854 229.457 177.254 229.039C178.654 228.621 179.927 228.003 181.073 227.183C182.235 226.349 183.217 225.329 184.02 224.124C184.838 222.904 185.409 221.505 185.735 219.929L191.278 219.922C190.863 222.257 190.106 224.347 189.006 226.192C187.906 228.037 186.537 229.608 184.9 230.903C183.262 232.184 181.424 233.16 179.383 233.832C177.358 234.504 175.191 234.841 172.881 234.844C168.978 234.849 165.505 233.901 162.463 232.002C159.422 230.102 157.027 227.399 155.28 223.892C153.532 220.385 152.655 216.223 152.649 211.405C152.643 206.588 153.51 202.423 155.248 198.912C156.987 195.4 159.375 192.691 162.412 190.784C165.449 188.877 168.919 187.921 172.823 187.916C175.132 187.914 177.3 188.245 179.327 188.912C181.369 189.579 183.21 190.558 184.851 191.849C186.491 193.126 187.864 194.686 188.969 196.528C190.074 198.355 190.836 200.444 191.256 202.792Z" fill="#2470ff"/>
<path d="M198.907 234.187L198.864 199.928L203.96 199.922L203.966 205.096L204.324 205.096C204.947 203.4 206.078 202.023 207.715 200.965C209.353 199.908 211.2 199.378 213.256 199.375C213.643 199.374 214.127 199.381 214.708 199.395C215.289 199.41 215.729 199.431 216.027 199.461L216.034 204.814C215.855 204.769 215.445 204.703 214.804 204.614C214.178 204.511 213.515 204.46 212.815 204.461C211.146 204.463 209.657 204.814 208.347 205.515C207.051 206.2 206.025 207.153 205.266 208.373C204.523 209.579 204.152 210.955 204.154 212.501L204.181 234.18L198.907 234.187Z" fill="#2470ff"/>
<path d="M226.15 247C225.257 247.001 224.459 246.928 223.759 246.78C223.059 246.647 222.574 246.514 222.306 246.38L223.641 241.739C224.923 242.065 226.055 242.182 227.038 242.092C228.022 242.002 228.893 241.562 229.651 240.773C230.425 239.999 231.131 238.741 231.77 237.001L232.75 234.323L220.013 199.902L225.734 199.895L235.244 227.183L235.601 227.182L245.043 199.871L250.764 199.864L236.242 239.137C235.589 240.907 234.779 242.372 233.812 243.533C232.845 244.709 231.721 245.581 230.44 246.147C229.175 246.714 227.745 246.998 226.15 247Z" fill="#2470ff"/>
<path d="M257.155 246.961L257.096 199.856L262.192 199.849L262.198 205.292L262.824 205.291C263.211 204.696 263.746 203.937 264.43 203.014C265.129 202.076 266.127 201.242 267.422 200.512C268.732 199.767 270.504 199.393 272.739 199.39C275.63 199.387 278.178 200.105 280.385 201.544C282.592 202.984 284.315 205.026 285.555 207.671C286.795 210.317 287.417 213.438 287.422 217.037C287.426 220.665 286.812 223.81 285.579 226.473C284.345 229.122 282.634 231.176 280.446 232.636C278.258 234.081 275.733 234.805 272.873 234.809C270.668 234.811 268.902 234.449 267.575 233.722C266.248 232.98 265.226 232.142 264.51 231.206C263.794 230.255 263.242 229.468 262.853 228.844L262.406 228.844L262.429 246.955L257.155 246.961ZM262.302 216.979C262.306 219.566 262.688 221.848 263.451 223.825C264.213 225.786 265.325 227.324 266.786 228.437C268.248 229.536 270.036 230.084 272.152 230.081C274.357 230.078 276.196 229.496 277.67 228.335C279.158 227.158 280.273 225.58 281.016 223.602C281.773 221.609 282.15 219.393 282.147 216.954C282.144 214.545 281.769 212.375 281.022 210.443C280.289 208.496 279.178 206.958 277.686 205.83C276.21 204.687 274.354 204.117 272.119 204.119C269.974 204.122 268.172 204.667 266.713 205.754C265.254 206.827 264.154 208.33 263.411 210.264C262.669 212.183 262.299 214.421 262.302 216.979Z" fill="#2470ff"/>
<path d="M309.745 199.79L309.75 204.251L291.961 204.273L291.956 199.812L309.745 199.79ZM297.13 191.598L302.404 191.592L302.445 224.244C302.447 225.731 302.664 226.846 303.097 227.589C303.545 228.317 304.112 228.807 304.798 229.059C305.498 229.296 306.236 229.414 307.011 229.413C307.592 229.413 308.068 229.382 308.441 229.322C308.813 229.247 309.111 229.188 309.334 229.143L310.413 233.87C310.056 234.004 309.557 234.139 308.916 234.273C308.276 234.423 307.464 234.498 306.481 234.499C304.991 234.501 303.53 234.183 302.099 233.546C300.683 232.908 299.505 231.935 298.564 230.628C297.639 229.321 297.175 227.671 297.173 225.678L297.13 191.598Z" fill="#2470ff"/>
<path d="M330.669 234.737C327.57 234.741 324.85 234.008 322.509 232.539C320.183 231.07 318.363 229.013 317.049 226.367C315.749 223.722 315.097 220.63 315.093 217.091C315.088 213.523 315.733 210.407 317.025 207.744C318.333 205.081 320.148 203.011 322.471 201.536C324.808 200.062 327.526 199.322 330.625 199.318C333.724 199.314 336.436 200.047 338.762 201.516C341.103 202.985 342.924 205.05 344.223 207.71C345.537 210.37 346.197 213.484 346.201 217.053C346.206 220.592 345.554 223.685 344.246 226.334C342.953 228.982 341.138 231.044 338.801 232.519C336.479 233.994 333.768 234.733 330.669 234.737ZM330.663 230.008C333.017 230.005 334.953 229.401 336.471 228.195C337.99 226.988 339.112 225.403 339.84 223.44C340.568 221.476 340.93 219.349 340.927 217.059C340.924 214.769 340.557 212.636 339.824 210.659C339.092 208.683 337.965 207.086 336.444 205.868C334.922 204.651 332.985 204.044 330.631 204.047C328.277 204.05 326.341 204.662 324.823 205.883C323.304 207.104 322.182 208.704 321.454 210.682C320.726 212.661 320.364 214.795 320.367 217.085C320.37 219.375 320.737 221.501 321.47 223.462C322.202 225.424 323.329 227.006 324.85 228.209C326.372 229.411 328.309 230.011 330.663 230.008Z" fill="#2470ff"/>
<path d="M385.958 199.696L385.963 204.156L367.459 204.179L367.454 199.719L385.958 199.696ZM373.039 233.97L372.99 194.983C372.988 193.021 373.447 191.384 374.37 190.075C375.292 188.765 376.49 187.782 377.964 187.126C379.438 186.47 380.995 186.141 382.633 186.139C383.93 186.137 384.988 186.24 385.807 186.447C386.627 186.654 387.238 186.847 387.641 187.025L386.126 191.577C385.858 191.488 385.486 191.377 385.009 191.244C384.547 191.11 383.936 191.044 383.176 191.045C381.433 191.047 380.174 191.487 379.401 192.366C378.642 193.244 378.264 194.531 378.266 196.226L378.313 233.964L373.039 233.97Z" fill="#2470ff"/>
<path d="M405.296 234.644C402.197 234.648 399.477 233.915 397.136 232.446C394.81 230.977 392.989 228.92 391.675 226.275C390.375 223.63 389.724 220.538 389.719 216.999C389.715 213.43 390.359 210.314 391.652 207.651C392.96 204.988 394.775 202.919 397.097 201.444C399.434 199.969 402.152 199.229 405.251 199.226C408.35 199.222 411.063 199.954 413.389 201.423C415.73 202.893 417.55 204.957 418.849 207.617C420.164 210.277 420.823 213.391 420.828 216.96C420.832 220.499 420.18 223.593 418.873 226.241C417.58 228.889 415.765 230.951 413.427 232.426C411.105 233.901 408.394 234.64 405.296 234.644ZM405.29 229.916C407.644 229.913 409.58 229.308 411.098 228.102C412.616 226.895 413.739 225.31 414.466 223.347C415.194 221.383 415.556 219.256 415.554 216.967C415.551 214.677 415.183 212.543 414.451 210.567C413.718 208.59 412.591 206.993 411.07 205.776C409.549 204.558 407.611 203.951 405.257 203.954C402.903 203.957 400.967 204.569 399.449 205.79C397.931 207.011 396.808 208.611 396.08 210.59C395.353 212.568 394.99 214.702 394.993 216.992C394.996 219.282 395.364 221.408 396.096 223.37C396.829 225.332 397.956 226.914 399.477 228.116C400.998 229.319 402.936 229.919 405.29 229.916Z" fill="#2470ff"/>
<path d="M428.27 233.902L428.228 199.643L433.323 199.637L433.33 204.811L433.687 204.811C434.311 203.115 435.441 201.738 437.079 200.68C438.716 199.623 440.563 199.092 442.619 199.09C443.007 199.089 443.491 199.096 444.072 199.11C444.653 199.124 445.092 199.146 445.391 199.176L445.397 204.529C445.218 204.484 444.809 204.418 444.168 204.329C443.542 204.226 442.879 204.175 442.179 204.176C440.51 204.178 439.021 204.529 437.71 205.23C436.415 205.915 435.388 206.868 434.63 208.088C433.886 209.294 433.516 210.669 433.518 212.216L433.545 233.895L428.27 233.902Z" fill="#2470ff"/>
<path d="M468.127 233.852L468.084 199.593L473.179 199.587L473.186 204.762L473.543 204.761C474.167 203.065 475.298 201.689 476.935 200.631C478.573 199.573 480.42 199.043 482.476 199.04C482.863 199.04 483.347 199.047 483.928 199.061C484.509 199.075 484.949 199.097 485.247 199.126L485.254 204.479C485.075 204.435 484.665 204.368 484.024 204.28C483.398 204.176 482.735 204.125 482.035 204.126C480.366 204.128 478.877 204.479 477.567 205.18C476.271 205.866 475.244 206.818 474.486 208.039C473.743 209.244 473.372 210.62 473.374 212.166L473.401 233.846L468.127 233.852Z" fill="#2470ff"/>
<path d="M504.261 234.521C500.953 234.525 498.099 233.8 495.699 232.346C493.313 230.877 491.471 228.827 490.171 226.197C488.887 223.552 488.242 220.475 488.238 216.965C488.233 213.456 488.87 210.363 490.148 207.685C491.441 204.992 493.241 202.893 495.549 201.388C497.871 199.869 500.581 199.107 503.68 199.103C505.468 199.101 507.234 199.396 508.978 199.989C510.722 200.581 512.31 201.546 513.742 202.882C515.174 204.204 516.316 205.957 517.168 208.142C518.02 210.326 518.448 213.017 518.452 216.214L518.454 218.445L491.994 218.477L491.988 213.927L513.085 213.901C513.083 211.968 512.693 210.244 511.917 208.728C511.155 207.212 510.066 206.017 508.649 205.141C507.248 204.266 505.593 203.829 503.686 203.832C501.586 203.834 499.769 204.357 498.235 205.4C496.717 206.427 495.549 207.767 494.732 209.419C493.914 211.07 493.507 212.84 493.509 214.729L493.513 217.762C493.516 220.349 493.966 222.542 494.862 224.34C495.773 226.123 497.034 227.482 498.644 228.417C500.254 229.337 502.125 229.795 504.255 229.793C505.641 229.791 506.892 229.596 508.009 229.208C509.141 228.805 510.116 228.209 510.934 227.42C511.753 226.616 512.385 225.619 512.83 224.429L517.927 225.85C517.393 227.576 516.494 229.093 515.229 230.403C513.964 231.699 512.401 232.712 510.539 233.443C508.678 234.159 506.585 234.518 504.261 234.521Z" fill="#2470ff"/>
<path d="M540.753 199.503L540.759 203.964L522.969 203.986L522.964 199.525L540.753 199.503ZM528.138 191.311L533.412 191.304L533.453 223.957C533.455 225.444 533.673 226.559 534.106 227.302C534.553 228.03 535.12 228.52 535.806 228.772C536.506 229.009 537.244 229.127 538.019 229.126C538.6 229.125 539.077 229.095 539.449 229.035C539.821 228.96 540.119 228.9 540.343 228.856L541.421 233.583C541.064 233.717 540.565 233.851 539.924 233.986C539.284 234.135 538.472 234.211 537.489 234.212C535.999 234.214 534.538 233.896 533.107 233.258C531.691 232.621 530.513 231.648 529.573 230.341C528.647 229.034 528.183 227.384 528.181 225.391L528.138 191.311Z" fill="#2470ff"/>
<path d="M548.1 233.753L548.057 199.494L553.331 199.487L553.374 233.746L548.1 233.753ZM550.732 193.781C549.704 193.782 548.817 193.434 548.071 192.736C547.34 192.038 546.974 191.198 546.973 190.217C546.972 189.236 547.336 188.395 548.065 187.695C548.809 186.996 549.695 186.645 550.723 186.644C551.751 186.642 552.63 186.991 553.361 187.689C554.107 188.387 554.481 189.226 554.482 190.208C554.483 191.189 554.112 192.03 553.368 192.729C552.638 193.429 551.76 193.78 550.732 193.781Z" fill="#2470ff"/>
<path d="M562.405 233.735L562.362 199.476L567.457 199.47L567.464 204.644L567.821 204.644C568.445 202.948 569.576 201.571 571.213 200.514C572.851 199.456 574.697 198.926 576.753 198.923C577.141 198.923 577.625 198.929 578.206 198.944C578.787 198.958 579.227 198.979 579.525 199.009L579.531 204.362C579.353 204.317 578.943 204.251 578.302 204.163C577.676 204.059 577.013 204.008 576.313 204.009C574.644 204.011 573.155 204.362 571.845 205.063C570.549 205.748 569.522 206.701 568.764 207.921C568.021 209.127 567.65 210.503 567.652 212.049L567.679 233.728L562.405 233.735Z" fill="#2470ff"/>
<path d="M598.539 234.404C595.231 234.408 592.377 233.683 589.977 232.229C587.591 230.76 585.749 228.71 584.449 226.08C583.165 223.435 582.52 220.357 582.516 216.848C582.511 213.339 583.148 210.246 584.426 207.567C585.719 204.875 587.519 202.776 589.827 201.271C592.149 199.752 594.859 198.99 597.958 198.986C599.746 198.984 601.512 199.279 603.256 199.872C605 200.464 606.588 201.429 608.02 202.765C609.452 204.087 610.594 205.84 611.446 208.025C612.298 210.209 612.726 212.9 612.73 216.097L612.732 218.327L586.272 218.36L586.267 213.81L607.363 213.784C607.361 211.851 606.971 210.127 606.195 208.611C605.433 207.095 604.344 205.9 602.927 205.024C601.526 204.149 599.871 203.712 597.964 203.714C595.864 203.717 594.047 204.24 592.513 205.282C590.995 206.31 589.827 207.65 589.01 209.301C588.192 210.953 587.785 212.723 587.787 214.611L587.791 217.645C587.794 220.232 588.244 222.425 589.14 224.223C590.051 226.006 591.312 227.365 592.922 228.3C594.532 229.219 596.403 229.678 598.533 229.675C599.919 229.674 601.17 229.479 602.287 229.091C603.419 228.688 604.394 228.092 605.212 227.303C606.031 226.499 606.663 225.502 607.108 224.312L612.205 225.733C611.671 227.458 610.772 228.976 609.507 230.286C608.242 231.581 606.679 232.594 604.817 233.325C602.956 234.041 600.863 234.401 598.539 234.404Z" fill="#2470ff"/>
<path d="M620.145 233.663L620.102 199.405L625.198 199.398L625.204 204.751L625.651 204.751C626.364 202.921 627.517 201.499 629.11 200.486C630.703 199.458 632.617 198.943 634.852 198.94C637.116 198.937 639.001 199.448 640.508 200.472C642.028 201.481 643.215 202.9 644.066 204.728L644.424 204.727C645.301 202.957 646.617 201.55 648.374 200.507C650.131 199.449 652.238 198.918 654.697 198.915C657.766 198.912 660.277 199.868 662.232 201.783C664.186 203.684 665.165 206.649 665.17 210.679L665.199 233.607L659.925 233.614L659.896 210.685C659.893 208.158 659.198 206.352 657.811 205.268C656.424 204.184 654.792 203.644 652.915 203.646C650.501 203.649 648.632 204.38 647.308 205.839C645.984 207.283 645.323 209.113 645.326 211.328L645.354 233.632L639.99 233.639L639.961 210.175C639.959 208.227 639.323 206.659 638.055 205.471C636.788 204.268 635.155 203.668 633.159 203.671C631.788 203.672 630.507 204.038 629.316 204.768C628.14 205.498 627.188 206.511 626.46 207.805C625.746 209.085 625.39 210.565 625.393 212.245L625.419 233.657L620.145 233.663Z" fill="#2470ff"/>
<path d="M688.606 234.292C685.298 234.296 682.444 233.571 680.044 232.117C677.658 230.648 675.816 228.598 674.516 225.968C673.232 223.323 672.587 220.245 672.583 216.736C672.578 213.227 673.215 210.134 674.493 207.455C675.786 204.763 677.586 202.664 679.893 201.159C682.216 199.64 684.926 198.878 688.025 198.874C689.813 198.872 691.579 199.167 693.323 199.76C695.067 200.352 696.655 201.317 698.087 202.653C699.519 203.975 700.661 205.728 701.513 207.913C702.364 210.097 702.792 212.788 702.796 215.985L702.799 218.215L676.339 218.248L676.333 213.698L697.43 213.672C697.428 211.739 697.038 210.015 696.261 208.499C695.5 206.983 694.411 205.788 692.994 204.912C691.593 204.037 689.938 203.6 688.031 203.602C685.93 203.605 684.113 204.128 682.58 205.17C681.062 206.198 679.894 207.538 679.077 209.19C678.259 210.841 677.852 212.611 677.854 214.499L677.858 217.533C677.861 220.12 678.311 222.313 679.207 224.111C680.118 225.894 681.379 227.253 682.989 228.188C684.599 229.107 686.469 229.566 688.6 229.563C689.985 229.562 691.237 229.367 692.354 228.979C693.486 228.576 694.461 227.98 695.279 227.191C696.097 226.387 696.729 225.39 697.175 224.2L702.272 225.621C701.738 227.346 700.838 228.864 699.574 230.174C698.309 231.469 696.746 232.483 694.884 233.213C693.023 233.929 690.93 234.289 688.606 234.292Z" fill="#2470ff"/>
<path d="M715.46 212.936L715.486 233.545L710.212 233.551L710.169 199.293L715.265 199.286L715.271 204.639L715.718 204.639C716.521 202.898 717.741 201.499 719.378 200.441C721.016 199.368 723.131 198.83 725.723 198.827C728.047 198.824 730.081 199.298 731.826 200.247C733.57 201.182 734.928 202.607 735.898 204.524C736.869 206.426 737.357 208.835 737.36 211.749L737.387 233.517L732.113 233.524L732.086 212.112C732.083 209.421 731.38 207.325 729.978 205.825C728.575 204.31 726.653 203.554 724.209 203.557C722.526 203.56 721.021 203.926 719.696 204.656C718.386 205.386 717.352 206.451 716.594 207.849C715.836 209.248 715.458 210.943 715.46 212.936Z" fill="#2470ff"/>
<path d="M761.281 199.229L761.287 203.69L743.498 203.712L743.492 199.251L761.281 199.229ZM748.667 191.037L753.941 191.03L753.982 223.683C753.984 225.17 754.201 226.285 754.634 227.028C755.082 227.756 755.649 228.246 756.334 228.498C757.035 228.735 757.772 228.853 758.547 228.852C759.128 228.851 759.605 228.821 759.977 228.761C760.35 228.686 760.648 228.626 760.871 228.581L761.95 233.308C761.592 233.443 761.093 233.577 760.453 233.712C759.812 233.861 759 233.937 758.017 233.938C756.527 233.94 755.067 233.622 753.636 232.984C752.22 232.347 751.041 231.374 750.101 230.067C749.176 228.76 748.712 227.11 748.709 225.117L748.667 191.037Z" fill="#2470ff"/>
<path d="M772.473 233.831C771.37 233.832 770.424 233.439 769.633 232.652C768.842 231.865 768.446 230.921 768.445 229.821C768.444 228.721 768.837 227.776 769.626 226.987C770.415 226.198 771.36 225.803 772.463 225.801C773.565 225.8 774.512 226.193 775.302 226.98C776.093 227.767 776.489 228.711 776.49 229.811C776.491 230.54 776.306 231.209 775.934 231.819C775.577 232.429 775.094 232.92 774.483 233.293C773.888 233.651 773.218 233.83 772.473 233.831Z" fill="#2470ff"/>
</svg>
