<svg width="1476" height="145" viewBox="0 0 1476 145" fill="none" xmlns="http://www.w3.org/2000/svg">
<path d="M49.477 133.8C37.077 133.8 21.7436 132.6 3.47695 130.2V106.4C26.1436 109.867 41.6103 111.6 49.877 111.6C67.2103 111.6 75.877 107.133 75.877 98.2V89.8C75.877 85.5333 74.6103 82.2667 72.077 80C69.677 77.7333 65.277 76.6 58.877 76.6H43.677C15.1436 76.6 0.876953 65.2667 0.876953 42.6V33C0.876953 21.6667 5.61029 13.3333 15.077 8C24.5436 2.66667 39.5436 0 60.077 0C70.7436 0 84.277 0.866667 100.677 2.6V25.8C80.5436 23.4 66.677 22.2 59.077 22.2C48.5436 22.2 41.477 23.0667 37.877 24.8C34.0103 26.6667 32.077 29.6 32.077 33.6V42.8C32.077 49.6 37.8103 53 49.277 53H64.877C79.677 53 90.4103 55.7333 97.077 61.2C103.744 66.6667 107.077 75 107.077 86.2V94.8C107.077 110.267 101.544 120.733 90.477 126.2C85.1436 129 79.2103 130.933 72.677 132C66.277 133.2 58.5436 133.8 49.477 133.8Z" fill="#2470ff"/>
<path d="M163.366 79.8L116.366 2H151.766L179.166 52.8L206.366 2H241.966L194.566 79.4V131.8H163.366V79.8Z" fill="#2470ff"/>
<path d="M295.877 32.6L260.477 52.2V27.6L301.477 2H325.077V131.8H295.877V32.6Z" fill="#2470ff"/>
<path d="M417.293 133.8C411.426 133.8 406.626 133.6 402.893 133.2C399.159 132.8 395.093 132 390.693 130.8C386.159 129.467 382.493 127.6 379.693 125.2C376.893 122.667 374.559 119.067 372.693 114.4C370.693 109.867 369.693 104.4 369.693 98V35.8C369.693 29.6667 370.626 24.2667 372.493 19.6C374.359 14.9333 376.759 11.2667 379.693 8.6C382.226 6.33334 385.693 4.53334 390.093 3.20001C394.493 1.73333 398.893 0.800002 403.293 0.400007C408.359 0.133336 413.026 0 417.293 0C423.293 0 428.093 0.200001 431.693 0.600004C435.293 0.866667 439.293 1.66667 443.693 3C448.493 4.46667 452.293 6.40001 455.093 8.80001C457.893 11.2 460.293 14.6667 462.293 19.2C464.293 23.7333 465.293 29.2667 465.293 35.8V98C465.293 104.133 464.293 109.533 462.293 114.2C460.426 118.867 458.026 122.467 455.093 125C452.426 127.267 448.759 129.133 444.093 130.6C439.559 132.067 435.226 132.933 431.093 133.2C427.359 133.6 422.759 133.8 417.293 133.8ZM417.693 115C423.293 115 427.293 114.667 429.693 114C432.093 113.2 433.693 111.8 434.493 109.8C435.293 107.8 435.693 104.533 435.693 100V33.8C435.693 29.2667 435.293 26 434.493 24C433.693 22 432.093 20.6667 429.693 20C427.293 19.2 423.293 18.8 417.693 18.8C411.959 18.8 407.826 19.2 405.293 20C402.893 20.6667 401.293 22 400.493 24C399.693 26 399.293 29.2667 399.293 33.8V100C399.293 104.533 399.693 107.8 400.493 109.8C401.293 111.8 402.893 113.2 405.293 114C407.826 114.667 411.959 115 417.693 115Z" fill="#2470ff"/>
<path d="M533.308 133.8C527.442 133.8 522.642 133.6 518.908 133.2C515.175 132.8 511.108 132 506.708 130.8C502.175 129.467 498.508 127.6 495.708 125.2C492.908 122.667 490.575 119.067 488.708 114.4C486.708 109.867 485.708 104.4 485.708 98V35.8C485.708 29.6667 486.642 24.2667 488.508 19.6C490.375 14.9333 492.775 11.2667 495.708 8.6C498.242 6.33334 501.708 4.53334 506.108 3.20001C510.508 1.73333 514.908 0.800002 519.308 0.400007C524.375 0.133336 529.042 0 533.308 0C539.308 0 544.108 0.200001 547.708 0.600004C551.308 0.866667 555.308 1.66667 559.708 3C564.508 4.46667 568.308 6.40001 571.108 8.80001C573.908 11.2 576.308 14.6667 578.308 19.2C580.308 23.7333 581.308 29.2667 581.308 35.8V98C581.308 104.133 580.308 109.533 578.308 114.2C576.442 118.867 574.042 122.467 571.108 125C568.442 127.267 564.775 129.133 560.108 130.6C555.575 132.067 551.242 132.933 547.108 133.2C543.375 133.6 538.775 133.8 533.308 133.8ZM533.708 115C539.308 115 543.308 114.667 545.708 114C548.108 113.2 549.708 111.8 550.508 109.8C551.308 107.8 551.708 104.533 551.708 100V33.8C551.708 29.2667 551.308 26 550.508 24C549.708 22 548.108 20.6667 545.708 20C543.308 19.2 539.308 18.8 533.708 18.8C527.975 18.8 523.842 19.2 521.308 20C518.908 20.6667 517.308 22 516.508 24C515.708 26 515.308 29.2667 515.308 33.8V100C515.308 104.533 515.708 107.8 516.508 109.8C517.308 111.8 518.908 113.2 521.308 114C523.842 114.667 527.975 115 533.708 115Z" fill="#2470ff"/>
<path d="M674.977 15.1456C674.73 12.9605 673.715 11.2678 671.93 10.0675C670.145 8.8518 667.898 8.24396 665.19 8.24396C663.251 8.24396 661.573 8.55173 660.158 9.16726C658.742 9.7674 657.642 10.5984 656.857 11.6602C656.087 12.7066 655.703 13.8991 655.703 15.2379C655.703 16.3613 655.964 17.3307 656.488 18.1463C657.026 18.9619 657.726 19.6467 658.588 20.2006C659.465 20.7392 660.404 21.1932 661.404 21.5625C662.404 21.9164 663.366 22.2088 664.289 22.4396L668.906 23.6399C670.414 24.0092 671.96 24.5093 673.545 25.1403C675.13 25.7712 676.6 26.6022 677.954 27.6332C679.308 28.6642 680.401 29.9414 681.232 31.4648C682.078 32.9883 682.501 34.8118 682.501 36.9354C682.501 39.6129 681.809 41.9904 680.424 44.0678C679.054 46.1452 677.062 47.7841 674.446 48.9844C671.845 50.1847 668.698 50.7848 665.005 50.7848C661.466 50.7848 658.403 50.2231 655.818 49.0998C653.233 47.9764 651.209 46.3838 649.747 44.3217C648.286 42.2443 647.478 39.7822 647.324 36.9354H654.479C654.618 38.6435 655.172 40.0669 656.141 41.2056C657.126 42.329 658.38 43.1676 659.904 43.7216C661.443 44.2602 663.128 44.5295 664.959 44.5295C666.975 44.5295 668.767 44.214 670.337 43.5831C671.922 42.9368 673.168 42.0443 674.076 40.9055C674.984 39.7514 675.438 38.4049 675.438 36.8661C675.438 35.4658 675.038 34.3194 674.238 33.4268C673.453 32.5343 672.384 31.7957 671.029 31.2109C669.691 30.6262 668.175 30.1107 666.482 29.6644L660.896 28.141C657.111 27.11 654.11 25.5942 651.894 23.5938C649.694 21.5933 648.593 18.9465 648.593 15.6534C648.593 12.9297 649.332 10.5522 650.809 8.52095C652.287 6.4897 654.287 4.9124 656.811 3.78906C659.334 2.65033 662.181 2.08096 665.351 2.08096C668.552 2.08096 671.376 2.64264 673.822 3.76598C676.285 4.88932 678.223 6.43584 679.639 8.40554C681.055 10.3598 681.794 12.6065 681.855 15.1456H674.977Z" fill="#2470ff"/>
<path d="M694.833 63.2955C693.802 63.2955 692.864 63.2108 692.017 63.0415C691.171 62.8877 690.54 62.7184 690.124 62.5337L691.786 56.8786C693.048 57.2171 694.171 57.3633 695.156 57.3171C696.141 57.271 697.011 56.9016 697.765 56.2092C698.534 55.5167 699.211 54.3857 699.796 52.8161L700.65 50.4616L687.678 14.5455H695.064L704.043 42.0597H704.412L713.391 14.5455H720.801L706.19 54.7319C705.513 56.5785 704.651 58.1404 703.604 59.4176C702.558 60.7102 701.312 61.6797 699.865 62.326C698.419 62.9723 696.741 63.2955 694.833 63.2955Z" fill="#2470ff"/>
<path d="M753.855 23.2013L747.6 24.3093C747.338 23.5091 746.922 22.7474 746.353 22.0241C745.799 21.3009 745.045 20.7085 744.091 20.2468C743.137 19.7852 741.944 19.5543 740.513 19.5543C738.559 19.5543 736.928 19.9929 735.62 20.87C734.312 21.7318 733.658 22.8474 733.658 24.217C733.658 25.4019 734.096 26.3559 734.973 27.0792C735.851 27.8024 737.266 28.3949 739.221 28.8565L744.853 30.1491C748.115 30.9032 750.546 32.065 752.147 33.6346C753.747 35.2042 754.547 37.2431 754.547 39.7514C754.547 41.875 753.932 43.7678 752.701 45.4297C751.485 47.0762 749.785 48.3688 747.6 49.3075C745.43 50.2462 742.914 50.7156 740.052 50.7156C736.081 50.7156 732.842 49.8692 730.334 48.1765C727.826 46.4684 726.287 44.0447 725.717 40.9055L732.388 39.8899C732.804 41.6288 733.658 42.9445 734.95 43.837C736.243 44.7141 737.928 45.1527 740.005 45.1527C742.268 45.1527 744.076 44.6834 745.43 43.7447C746.784 42.7906 747.461 41.6288 747.461 40.2592C747.461 39.1513 747.046 38.2203 746.215 37.4663C745.399 36.7122 744.145 36.1429 742.452 35.7582L736.451 34.4425C733.142 33.6884 730.696 32.4882 729.111 30.8416C727.541 29.1951 726.756 27.11 726.756 24.5863C726.756 22.4935 727.341 20.6623 728.51 19.0927C729.68 17.5231 731.296 16.2997 733.358 15.4226C735.42 14.5301 737.782 14.0838 740.444 14.0838C744.276 14.0838 747.292 14.9148 749.492 16.5767C751.693 18.2232 753.147 20.4315 753.855 23.2013Z" fill="#2470ff"/>
<path d="M778.686 14.5455V20.0852H759.32V14.5455H778.686ZM764.513 6.05114H771.415V39.5898C771.415 40.9286 771.615 41.9366 772.015 42.6136C772.415 43.2753 772.931 43.7293 773.561 43.9755C774.208 44.2063 774.908 44.3217 775.662 44.3217C776.216 44.3217 776.701 44.2833 777.116 44.2063C777.532 44.1294 777.855 44.0678 778.086 44.0217L779.332 49.723C778.932 49.8769 778.363 50.0308 777.624 50.1847C776.885 50.3539 775.962 50.4463 774.854 50.4616C773.038 50.4924 771.346 50.1693 769.776 49.4922C768.206 48.8151 766.937 47.7687 765.967 46.353C764.998 44.9373 764.513 43.1599 764.513 41.021V6.05114Z" fill="#2470ff"/>
<path d="M801.22 50.7156C797.727 50.7156 794.718 49.9692 792.195 48.4766C789.686 46.9685 787.747 44.8526 786.378 42.1289C785.024 39.3898 784.347 36.1813 784.347 32.5036C784.347 28.8719 785.024 25.6712 786.378 22.9013C787.747 20.1314 789.656 17.9693 792.102 16.4151C794.564 14.8609 797.442 14.0838 800.735 14.0838C802.736 14.0838 804.675 14.4147 806.552 15.0763C808.429 15.738 810.114 16.7768 811.607 18.1925C813.1 19.6082 814.277 21.4471 815.139 23.7092C816 25.9558 816.431 28.6873 816.431 31.9034V34.3501H788.248V29.1797H809.668C809.668 27.3639 809.299 25.7558 808.56 24.3555C807.821 22.9397 806.783 21.8241 805.444 21.0085C804.121 20.1929 802.566 19.7852 800.781 19.7852C798.842 19.7852 797.15 20.2622 795.703 21.2163C794.272 22.1549 793.164 23.386 792.379 24.9094C791.61 26.4175 791.225 28.0563 791.225 29.826V33.8654C791.225 36.2352 791.641 38.2511 792.472 39.913C793.318 41.5749 794.495 42.8445 796.003 43.7216C797.511 44.5833 799.273 45.0142 801.289 45.0142C802.597 45.0142 803.79 44.8295 804.867 44.4602C805.944 44.0755 806.875 43.5062 807.66 42.7521C808.445 41.9981 809.045 41.0671 809.46 39.9592L815.993 41.1364C815.469 43.0599 814.531 44.7449 813.177 46.1914C811.838 47.6225 810.153 48.7382 808.122 49.5384C806.106 50.3232 803.805 50.7156 801.22 50.7156Z" fill="#2470ff"/>
<path d="M824.089 50V14.5455H830.713V20.316H831.152C831.891 18.3617 833.099 16.8383 834.776 15.7457C836.453 14.6378 838.461 14.0838 840.8 14.0838C843.17 14.0838 845.155 14.6378 846.756 15.7457C848.371 16.8537 849.564 18.3771 850.333 20.316H850.703C851.549 18.4233 852.896 16.9152 854.742 15.7919C856.589 14.6532 858.789 14.0838 861.344 14.0838C864.56 14.0838 867.184 15.0917 869.215 17.1076C871.261 19.1235 872.285 22.1626 872.285 26.2251V50H865.383V26.8714C865.383 24.4709 864.729 22.732 863.421 21.6548C862.113 20.5777 860.551 20.0391 858.735 20.0391C856.489 20.0391 854.742 20.7315 853.496 22.1165C852.249 23.486 851.626 25.248 851.626 27.4023V50H844.747V26.4329C844.747 24.5093 844.147 22.9628 842.947 21.7933C841.747 20.6238 840.185 20.0391 838.261 20.0391C836.953 20.0391 835.745 20.3853 834.637 21.0778C833.545 21.7549 832.66 22.7012 831.983 23.9169C831.321 25.1326 830.99 26.5406 830.99 28.141V50H824.089Z" fill="#2470ff"/>
<path d="M891.853 50.7848C889.606 50.7848 887.575 50.3693 885.759 49.5384C883.943 48.692 882.505 47.4686 881.443 45.8683C880.396 44.2679 879.873 42.3059 879.873 39.9822C879.873 37.9818 880.258 36.3352 881.027 35.0426C881.797 33.75 882.835 32.7267 884.143 31.9727C885.451 31.2186 886.913 30.6493 888.529 30.2646C890.145 29.8799 891.791 29.5875 893.469 29.3874C895.592 29.1412 897.316 28.9412 898.639 28.7873C899.962 28.618 900.924 28.3487 901.524 27.9794C902.125 27.6101 902.425 27.0099 902.425 26.179V26.0174C902.425 24.0015 901.855 22.4396 900.717 21.3317C899.593 20.2237 897.916 19.6697 895.685 19.6697C893.361 19.6697 891.53 20.1852 890.191 21.2163C888.868 22.2319 887.952 23.3629 887.444 24.6094L880.958 23.1321C881.727 20.9777 882.851 19.2389 884.328 17.9155C885.821 16.5767 887.536 15.6072 889.475 15.0071C891.414 14.3916 893.453 14.0838 895.592 14.0838C897.008 14.0838 898.508 14.2531 900.093 14.5916C901.694 14.9148 903.186 15.5149 904.571 16.392C905.972 17.2692 907.118 18.5233 908.011 20.1545C908.903 21.7702 909.349 23.8707 909.349 26.456V50H902.609V45.1527H902.332C901.886 46.0452 901.217 46.9223 900.324 47.7841C899.432 48.6458 898.285 49.3614 896.885 49.9308C895.484 50.5001 893.807 50.7848 891.853 50.7848ZM893.353 45.245C895.261 45.245 896.893 44.868 898.247 44.114C899.616 43.36 900.655 42.3751 901.363 41.1594C902.086 39.9284 902.448 38.6127 902.448 37.2124V32.642C902.201 32.8883 901.724 33.1191 901.017 33.3345C900.324 33.5346 899.532 33.7115 898.639 33.8654C897.747 34.0039 896.877 34.1347 896.031 34.2578C895.184 34.3655 894.477 34.4579 893.907 34.5348C892.568 34.7041 891.345 34.9888 890.237 35.3888C889.145 35.7889 888.267 36.366 887.606 37.12C886.959 37.8587 886.636 38.8435 886.636 40.0746C886.636 41.7827 887.267 43.0753 888.529 43.9524C889.791 44.8142 891.399 45.245 893.353 45.245Z" fill="#2470ff"/>
<path d="M935.092 14.5455V20.0852H915.726V14.5455H935.092ZM920.919 6.05114H927.821V39.5898C927.821 40.9286 928.021 41.9366 928.421 42.6136C928.821 43.2753 929.337 43.7293 929.968 43.9755C930.614 44.2063 931.314 44.3217 932.068 44.3217C932.622 44.3217 933.107 44.2833 933.522 44.2063C933.938 44.1294 934.261 44.0678 934.492 44.0217L935.738 49.723C935.338 49.8769 934.769 50.0308 934.03 50.1847C933.292 50.3539 932.368 50.4463 931.26 50.4616C929.444 50.4924 927.752 50.1693 926.182 49.4922C924.613 48.8151 923.343 47.7687 922.374 46.353C921.404 44.9373 920.919 43.1599 920.919 41.021V6.05114Z" fill="#2470ff"/>
<path d="M942.727 50V14.5455H949.628V50H942.727ZM946.212 9.07493C945.012 9.07493 943.981 8.67483 943.119 7.87464C942.273 7.05907 941.849 6.0896 941.849 4.96626C941.849 3.82753 942.273 2.85807 943.119 2.05788C943.981 1.2423 945.012 0.834516 946.212 0.834516C947.412 0.834516 948.436 1.2423 949.282 2.05788C950.144 2.85807 950.574 3.82753 950.574 4.96626C950.574 6.0896 950.144 7.05907 949.282 7.87464C948.436 8.67483 947.412 9.07493 946.212 9.07493Z" fill="#2470ff"/>
<path d="M973.847 50.7156C970.416 50.7156 967.461 49.9384 964.984 48.3842C962.522 46.8146 960.629 44.6526 959.305 41.8981C957.982 39.1436 957.32 35.989 957.32 32.4343C957.32 28.8335 957.997 25.6558 959.352 22.9013C960.706 20.1314 962.614 17.9693 965.076 16.4151C967.538 14.8609 970.439 14.0838 973.778 14.0838C976.471 14.0838 978.872 14.5839 980.98 15.5842C983.088 16.569 984.788 17.954 986.081 19.739C987.389 21.524 988.166 23.6091 988.412 25.9943H981.695C981.326 24.3324 980.48 22.9013 979.156 21.701C977.848 20.5007 976.094 19.9006 973.893 19.9006C971.97 19.9006 970.285 20.4084 968.838 21.424C967.407 22.4242 966.292 23.8553 965.491 25.7173C964.691 27.5639 964.291 29.7491 964.291 32.2727C964.291 34.858 964.684 37.0893 965.468 38.9666C966.253 40.844 967.361 42.2982 968.792 43.3292C970.239 44.3602 971.939 44.8757 973.893 44.8757C975.201 44.8757 976.386 44.6372 977.448 44.1602C978.525 43.6677 979.426 42.9676 980.149 42.0597C980.887 41.1518 981.403 40.0592 981.695 38.782H988.412C988.166 41.0748 987.42 43.1214 986.173 44.9219C984.927 46.7223 983.257 48.138 981.164 49.169C979.087 50.2 976.648 50.7156 973.847 50.7156Z" fill="#2470ff"/>
<path d="M1006.11 50.7848C1003.86 50.7848 1001.83 50.3693 1000.02 49.5384C998.201 48.692 996.762 47.4686 995.701 45.8683C994.654 44.2679 994.131 42.3059 994.131 39.9822C994.131 37.9818 994.516 36.3352 995.285 35.0426C996.055 33.75 997.093 32.7267 998.401 31.9727C999.709 31.2186 1001.17 30.6493 1002.79 30.2646C1004.4 29.8799 1006.05 29.5875 1007.73 29.3874C1009.85 29.1412 1011.57 28.9412 1012.9 28.7873C1014.22 28.618 1015.18 28.3487 1015.78 27.9794C1016.38 27.6101 1016.68 27.0099 1016.68 26.179V26.0174C1016.68 24.0015 1016.11 22.4396 1014.97 21.3317C1013.85 20.2237 1012.17 19.6697 1009.94 19.6697C1007.62 19.6697 1005.79 20.1852 1004.45 21.2163C1003.13 22.2319 1002.21 23.3629 1001.7 24.6094L995.216 23.1321C995.985 20.9777 997.109 19.2389 998.586 17.9155C1000.08 16.5767 1001.79 15.6072 1003.73 15.0071C1005.67 14.3916 1007.71 14.0838 1009.85 14.0838C1011.27 14.0838 1012.77 14.2531 1014.35 14.5916C1015.95 14.9148 1017.44 15.5149 1018.83 16.392C1020.23 17.2692 1021.38 18.5233 1022.27 20.1545C1023.16 21.7702 1023.61 23.8707 1023.61 26.456V50H1016.87V45.1527H1016.59C1016.14 46.0452 1015.47 46.9223 1014.58 47.7841C1013.69 48.6458 1012.54 49.3614 1011.14 49.9308C1009.74 50.5001 1008.07 50.7848 1006.11 50.7848ZM1007.61 45.245C1009.52 45.245 1011.15 44.868 1012.5 44.114C1013.87 43.36 1014.91 42.3751 1015.62 41.1594C1016.34 39.9284 1016.71 38.6127 1016.71 37.2124V32.642C1016.46 32.8883 1015.98 33.1191 1015.27 33.3345C1014.58 33.5346 1013.79 33.7115 1012.9 33.8654C1012 34.0039 1011.13 34.1347 1010.29 34.2578C1009.44 34.3655 1008.73 34.4579 1008.17 34.5348C1006.83 34.7041 1005.6 34.9888 1004.49 35.3888C1003.4 35.7889 1002.53 36.366 1001.86 37.12C1001.22 37.8587 1000.89 38.8435 1000.89 40.0746C1000.89 41.7827 1001.53 43.0753 1002.79 43.9524C1004.05 44.8142 1005.66 45.245 1007.61 45.245Z" fill="#2470ff"/>
<path d="M1039.7 2.72727V50H1032.8V2.72727H1039.7Z" fill="#2470ff"/>
<path d="M1055.89 2.72727V50H1048.99V2.72727H1055.89Z" fill="#2470ff"/>
<path d="M1069.54 63.2955C1068.5 63.2955 1067.57 63.2108 1066.72 63.0415C1065.87 62.8877 1065.24 62.7184 1064.83 62.5337L1066.49 56.8786C1067.75 57.2171 1068.87 57.3633 1069.86 57.3171C1070.84 57.271 1071.71 56.9016 1072.47 56.2092C1073.24 55.5167 1073.91 54.3857 1074.5 52.8161L1075.35 50.4616L1062.38 14.5455H1069.77L1078.75 42.0597H1079.11L1088.09 14.5455H1095.5L1080.89 54.7319C1080.21 56.5785 1079.35 58.1404 1078.31 59.4176C1077.26 60.7102 1076.01 61.6797 1074.57 62.326C1073.12 62.9723 1071.44 63.2955 1069.54 63.2955Z" fill="#2470ff"/>
<path d="M1119.19 50V14.5455H1125.86V20.1776H1126.23C1126.88 18.2694 1128.02 16.7691 1129.65 15.6765C1131.29 14.5685 1133.16 14.0146 1135.23 14.0146C1135.66 14.0146 1136.17 14.0299 1136.76 14.0607C1137.36 14.0915 1137.83 14.13 1138.17 14.1761V20.7777C1137.89 20.7008 1137.4 20.6161 1136.69 20.5238C1135.98 20.4161 1135.27 20.3622 1134.56 20.3622C1132.93 20.3622 1131.48 20.7085 1130.2 21.4009C1128.94 22.078 1127.94 23.0244 1127.2 24.2401C1126.46 25.4403 1126.09 26.8099 1126.09 28.3487V50H1119.19Z" fill="#2470ff"/>
<path d="M1158.15 50.7156C1154.66 50.7156 1151.65 49.9692 1149.12 48.4766C1146.62 46.9685 1144.68 44.8526 1143.31 42.1289C1141.95 39.3898 1141.28 36.1813 1141.28 32.5036C1141.28 28.8719 1141.95 25.6712 1143.31 22.9013C1144.68 20.1314 1146.58 17.9693 1149.03 16.4151C1151.49 14.8609 1154.37 14.0838 1157.66 14.0838C1159.66 14.0838 1161.6 14.4147 1163.48 15.0763C1165.36 15.738 1167.04 16.7768 1168.54 18.1925C1170.03 19.6082 1171.21 21.4471 1172.07 23.7092C1172.93 25.9558 1173.36 28.6873 1173.36 31.9034V34.3501H1145.18V29.1797H1166.6C1166.6 27.3639 1166.23 25.7558 1165.49 24.3555C1164.75 22.9397 1163.71 21.8241 1162.37 21.0085C1161.05 20.1929 1159.5 19.7852 1157.71 19.7852C1155.77 19.7852 1154.08 20.2622 1152.63 21.2163C1151.2 22.1549 1150.09 23.386 1149.31 24.9094C1148.54 26.4175 1148.15 28.0563 1148.15 29.826V33.8654C1148.15 36.2352 1148.57 38.2511 1149.4 39.913C1150.25 41.5749 1151.42 42.8445 1152.93 43.7216C1154.44 44.5833 1156.2 45.0142 1158.22 45.0142C1159.53 45.0142 1160.72 44.8295 1161.8 44.4602C1162.87 44.0755 1163.8 43.5062 1164.59 42.7521C1165.37 41.9981 1165.97 41.0671 1166.39 39.9592L1172.92 41.1364C1172.4 43.0599 1171.46 44.7449 1170.11 46.1914C1168.77 47.6225 1167.08 48.7382 1165.05 49.5384C1163.03 50.3232 1160.73 50.7156 1158.15 50.7156Z" fill="#2470ff"/>
<path d="M1181.57 50V2.72727H1188.47V20.293H1188.89C1189.29 19.5543 1189.87 18.7003 1190.62 17.7308C1191.37 16.7614 1192.42 15.915 1193.76 15.1918C1195.1 14.4531 1196.87 14.0838 1199.07 14.0838C1201.93 14.0838 1204.48 14.8071 1206.73 16.2536C1208.98 17.7 1210.74 19.7852 1212.02 22.5089C1213.31 25.2326 1213.96 28.5103 1213.96 32.342C1213.96 36.1736 1213.32 39.459 1212.04 42.1982C1210.76 44.9219 1209.01 47.0224 1206.78 48.4996C1204.55 49.9615 1202 50.6925 1199.14 50.6925C1196.98 50.6925 1195.22 50.3308 1193.85 49.6076C1192.5 48.8844 1191.44 48.038 1190.67 47.0685C1189.9 46.0991 1189.3 45.2373 1188.89 44.4833H1188.31V50H1181.57ZM1188.33 32.2727C1188.33 34.7656 1188.7 36.9508 1189.42 38.8281C1190.14 40.7055 1191.19 42.1751 1192.56 43.2369C1193.93 44.2833 1195.61 44.8065 1197.59 44.8065C1199.65 44.8065 1201.38 44.2602 1202.76 43.1676C1204.15 42.0597 1205.19 40.5593 1205.9 38.6665C1206.62 36.7738 1206.99 34.6425 1206.99 32.2727C1206.99 29.9337 1206.63 27.8332 1205.92 25.9712C1205.23 24.1093 1204.18 22.6397 1202.78 21.5625C1201.4 20.4853 1199.67 19.9467 1197.59 19.9467C1195.59 19.9467 1193.9 20.4622 1192.51 21.4933C1191.14 22.5243 1190.1 23.9631 1189.4 25.8097C1188.69 27.6562 1188.33 29.8106 1188.33 32.2727Z" fill="#2470ff"/>
<path d="M1232.02 50.7848C1229.78 50.7848 1227.75 50.3693 1225.93 49.5384C1224.11 48.692 1222.68 47.4686 1221.61 45.8683C1220.57 44.2679 1220.04 42.3059 1220.04 39.9822C1220.04 37.9818 1220.43 36.3352 1221.2 35.0426C1221.97 33.75 1223.01 32.7267 1224.31 31.9727C1225.62 31.2186 1227.08 30.6493 1228.7 30.2646C1230.32 29.8799 1231.96 29.5875 1233.64 29.3874C1235.76 29.1412 1237.49 28.9412 1238.81 28.7873C1240.13 28.618 1241.1 28.3487 1241.7 27.9794C1242.3 27.6101 1242.6 27.0099 1242.6 26.179V26.0174C1242.6 24.0015 1242.03 22.4396 1240.89 21.3317C1239.76 20.2237 1238.09 19.6697 1235.86 19.6697C1233.53 19.6697 1231.7 20.1852 1230.36 21.2163C1229.04 22.2319 1228.12 23.3629 1227.62 24.6094L1221.13 23.1321C1221.9 20.9777 1223.02 19.2389 1224.5 17.9155C1225.99 16.5767 1227.71 15.6072 1229.65 15.0071C1231.59 14.3916 1233.62 14.0838 1235.76 14.0838C1237.18 14.0838 1238.68 14.2531 1240.26 14.5916C1241.86 14.9148 1243.36 15.5149 1244.74 16.392C1246.14 17.2692 1247.29 18.5233 1248.18 20.1545C1249.07 21.7702 1249.52 23.8707 1249.52 26.456V50H1242.78V45.1527H1242.5C1242.06 46.0452 1241.39 46.9223 1240.49 47.7841C1239.6 48.6458 1238.46 49.3614 1237.06 49.9308C1235.66 50.5001 1233.98 50.7848 1232.02 50.7848ZM1233.52 45.245C1235.43 45.245 1237.06 44.868 1238.42 44.114C1239.79 43.36 1240.83 42.3751 1241.53 41.1594C1242.26 39.9284 1242.62 38.6127 1242.62 37.2124V32.642C1242.37 32.8883 1241.9 33.1191 1241.19 33.3345C1240.5 33.5346 1239.7 33.7115 1238.81 33.8654C1237.92 34.0039 1237.05 34.1347 1236.2 34.2578C1235.36 34.3655 1234.65 34.4579 1234.08 34.5348C1232.74 34.7041 1231.52 34.9888 1230.41 35.3888C1229.32 35.7889 1228.44 36.366 1227.78 37.12C1227.13 37.8587 1226.81 38.8435 1226.81 40.0746C1226.81 41.7827 1227.44 43.0753 1228.7 43.9524C1229.96 44.8142 1231.57 45.245 1233.52 45.245Z" fill="#2470ff"/>
<path d="M1265.61 2.72727V50H1258.71V2.72727H1265.61Z" fill="#2470ff"/>
<path d="M1285.22 50.7848C1282.97 50.7848 1280.94 50.3693 1279.12 49.5384C1277.31 48.692 1275.87 47.4686 1274.81 45.8683C1273.76 44.2679 1273.24 42.3059 1273.24 39.9822C1273.24 37.9818 1273.62 36.3352 1274.39 35.0426C1275.16 33.75 1276.2 32.7267 1277.51 31.9727C1278.82 31.2186 1280.28 30.6493 1281.89 30.2646C1283.51 29.8799 1285.16 29.5875 1286.83 29.3874C1288.96 29.1412 1290.68 28.9412 1292 28.7873C1293.33 28.618 1294.29 28.3487 1294.89 27.9794C1295.49 27.6101 1295.79 27.0099 1295.79 26.179V26.0174C1295.79 24.0015 1295.22 22.4396 1294.08 21.3317C1292.96 20.2237 1291.28 19.6697 1289.05 19.6697C1286.73 19.6697 1284.89 20.1852 1283.56 21.2163C1282.23 22.2319 1281.32 23.3629 1280.81 24.6094L1274.32 23.1321C1275.09 20.9777 1276.21 19.2389 1277.69 17.9155C1279.18 16.5767 1280.9 15.6072 1282.84 15.0071C1284.78 14.3916 1286.82 14.0838 1288.96 14.0838C1290.37 14.0838 1291.87 14.2531 1293.46 14.5916C1295.06 14.9148 1296.55 15.5149 1297.94 16.392C1299.34 17.2692 1300.48 18.5233 1301.37 20.1545C1302.27 21.7702 1302.71 23.8707 1302.71 26.456V50H1295.97V45.1527H1295.7C1295.25 46.0452 1294.58 46.9223 1293.69 47.7841C1292.8 48.6458 1291.65 49.3614 1290.25 49.9308C1288.85 50.5001 1287.17 50.7848 1285.22 50.7848ZM1286.72 45.245C1288.63 45.245 1290.26 44.868 1291.61 44.114C1292.98 43.36 1294.02 42.3751 1294.73 41.1594C1295.45 39.9284 1295.81 38.6127 1295.81 37.2124V32.642C1295.57 32.8883 1295.09 33.1191 1294.38 33.3345C1293.69 33.5346 1292.9 33.7115 1292 33.8654C1291.11 34.0039 1290.24 34.1347 1289.4 34.2578C1288.55 34.3655 1287.84 34.4579 1287.27 34.5348C1285.93 34.7041 1284.71 34.9888 1283.6 35.3888C1282.51 35.7889 1281.63 36.366 1280.97 37.12C1280.32 37.8587 1280 38.8435 1280 40.0746C1280 41.7827 1280.63 43.0753 1281.89 43.9524C1283.16 44.8142 1284.76 45.245 1286.72 45.245Z" fill="#2470ff"/>
<path d="M1318.81 28.9489V50H1311.91V14.5455H1318.53V20.316H1318.97C1319.78 18.4387 1321.06 16.9306 1322.8 15.7919C1324.56 14.6532 1326.76 14.0838 1329.43 14.0838C1331.84 14.0838 1333.96 14.5916 1335.77 15.6072C1337.59 16.6075 1339 18.1001 1340 20.0852C1341 22.0703 1341.5 24.5247 1341.5 27.4485V50H1334.6V28.2795C1334.6 25.7096 1333.93 23.7015 1332.59 22.255C1331.25 20.7931 1329.41 20.0621 1327.07 20.0621C1325.47 20.0621 1324.05 20.4084 1322.8 21.1009C1321.57 21.7933 1320.59 22.8089 1319.87 24.1477C1319.16 25.4711 1318.81 27.0715 1318.81 28.9489Z" fill="#2470ff"/>
<path d="M1365.69 50.7156C1362.26 50.7156 1359.3 49.9384 1356.82 48.3842C1354.36 46.8146 1352.47 44.6526 1351.15 41.8981C1349.82 39.1436 1349.16 35.989 1349.16 32.4343C1349.16 28.8335 1349.84 25.6558 1351.19 22.9013C1352.55 20.1314 1354.45 17.9693 1356.92 16.4151C1359.38 14.8609 1362.28 14.0838 1365.62 14.0838C1368.31 14.0838 1370.71 14.5839 1372.82 15.5842C1374.93 16.569 1376.63 17.954 1377.92 19.739C1379.23 21.524 1380.01 23.6091 1380.25 25.9943H1373.54C1373.17 24.3324 1372.32 22.9013 1371 21.701C1369.69 20.5007 1367.93 19.9006 1365.73 19.9006C1363.81 19.9006 1362.13 20.4084 1360.68 21.424C1359.25 22.4242 1358.13 23.8553 1357.33 25.7173C1356.53 27.5639 1356.13 29.7491 1356.13 32.2727C1356.13 34.858 1356.52 37.0893 1357.31 38.9666C1358.09 40.844 1359.2 42.2982 1360.63 43.3292C1362.08 44.3602 1363.78 44.8757 1365.73 44.8757C1367.04 44.8757 1368.23 44.6372 1369.29 44.1602C1370.37 43.6677 1371.27 42.9676 1371.99 42.0597C1372.73 41.1518 1373.24 40.0592 1373.54 38.782H1380.25C1380.01 41.0748 1379.26 43.1214 1378.01 44.9219C1376.77 46.7223 1375.1 48.138 1373.01 49.169C1370.93 50.2 1368.49 50.7156 1365.69 50.7156Z" fill="#2470ff"/>
<path d="M1402.91 50.7156C1399.42 50.7156 1396.41 49.9692 1393.89 48.4766C1391.38 46.9685 1389.44 44.8526 1388.07 42.1289C1386.72 39.3898 1386.04 36.1813 1386.04 32.5036C1386.04 28.8719 1386.72 25.6712 1388.07 22.9013C1389.44 20.1314 1391.35 17.9693 1393.8 16.4151C1396.26 14.8609 1399.14 14.0838 1402.43 14.0838C1404.43 14.0838 1406.37 14.4147 1408.25 15.0763C1410.12 15.738 1411.81 16.7768 1413.3 18.1925C1414.79 19.6082 1415.97 21.4471 1416.83 23.7092C1417.69 25.9558 1418.13 28.6873 1418.13 31.9034V34.3501H1389.94V29.1797H1411.36C1411.36 27.3639 1410.99 25.7558 1410.25 24.3555C1409.52 22.9397 1408.48 21.8241 1407.14 21.0085C1405.81 20.1929 1404.26 19.7852 1402.48 19.7852C1400.54 19.7852 1398.84 20.2622 1397.4 21.2163C1395.97 22.1549 1394.86 23.386 1394.07 24.9094C1393.3 26.4175 1392.92 28.0563 1392.92 29.826V33.8654C1392.92 36.2352 1393.34 38.2511 1394.17 39.913C1395.01 41.5749 1396.19 42.8445 1397.7 43.7216C1399.21 44.5833 1400.97 45.0142 1402.98 45.0142C1404.29 45.0142 1405.48 44.8295 1406.56 44.4602C1407.64 44.0755 1408.57 43.5062 1409.35 42.7521C1410.14 41.9981 1410.74 41.0671 1411.15 39.9592L1417.69 41.1364C1417.16 43.0599 1416.23 44.7449 1414.87 46.1914C1413.53 47.6225 1411.85 48.7382 1409.82 49.5384C1407.8 50.3232 1405.5 50.7156 1402.91 50.7156Z" fill="#2470ff"/>
<path d="M1439.06 50.6925C1436.19 50.6925 1433.64 49.9615 1431.39 48.4996C1429.16 47.0224 1427.41 44.9219 1426.13 42.1982C1424.87 39.459 1424.24 36.1736 1424.24 32.342C1424.24 28.5103 1424.88 25.2326 1426.15 22.5089C1427.45 19.7852 1429.21 17.7 1431.46 16.2536C1433.71 14.8071 1436.25 14.0838 1439.1 14.0838C1441.3 14.0838 1443.07 14.4531 1444.41 15.1918C1445.76 15.915 1446.81 16.7614 1447.55 17.7308C1448.3 18.7003 1448.89 19.5543 1449.3 20.293H1449.72V2.72727H1456.62V50H1449.88V44.4833H1449.3C1448.89 45.2373 1448.29 46.0991 1447.5 47.0685C1446.73 48.038 1445.67 48.8844 1444.32 49.6076C1442.96 50.3308 1441.21 50.6925 1439.06 50.6925ZM1440.58 44.8065C1442.56 44.8065 1444.24 44.2833 1445.61 43.2369C1447 42.1751 1448.04 40.7055 1448.75 38.8281C1449.47 36.9508 1449.83 34.7656 1449.83 32.2727C1449.83 29.8106 1449.48 27.6562 1448.77 25.8097C1448.07 23.9631 1447.03 22.5243 1445.66 21.4933C1444.29 20.4622 1442.59 19.9467 1440.58 19.9467C1438.5 19.9467 1436.77 20.4853 1435.39 21.5625C1434 22.6397 1432.95 24.1093 1432.25 25.9712C1431.55 27.8332 1431.21 29.9337 1431.21 32.2727C1431.21 34.6425 1431.56 36.7738 1432.27 38.6665C1432.98 40.5593 1434.02 42.0597 1435.41 43.1676C1436.81 44.2602 1438.53 44.8065 1440.58 44.8065Z" fill="#2470ff"/>
<path d="M1475.45 43.5369L1475.1 46.0529C1474.87 47.8995 1474.48 49.823 1473.93 51.8235C1473.39 53.8394 1472.83 55.709 1472.24 57.4325C1471.67 59.156 1471.2 60.5256 1470.83 61.5412H1465.94C1466.14 60.5871 1466.42 59.2945 1466.77 57.6634C1467.13 56.0476 1467.47 54.2395 1467.81 52.239C1468.15 50.2385 1468.4 48.1996 1468.57 46.1222L1468.8 43.5369H1475.45Z" fill="#2470ff"/>
<path d="M665.19 95.5455V101.085H645.823V95.5455H665.19ZM651.017 87.0511H657.919V120.59C657.919 121.929 658.119 122.937 658.519 123.614C658.919 124.275 659.434 124.729 660.065 124.975C660.712 125.206 661.412 125.322 662.166 125.322C662.72 125.322 663.205 125.283 663.62 125.206C664.036 125.129 664.359 125.068 664.589 125.022L665.836 130.723C665.436 130.877 664.867 131.031 664.128 131.185C663.389 131.354 662.466 131.446 661.358 131.462C659.542 131.492 657.849 131.169 656.28 130.492C654.71 129.815 653.441 128.769 652.471 127.353C651.502 125.937 651.017 124.16 651.017 122.021V87.0511Z" fill="#2470ff"/>
<path d="M687.378 131.716C684.054 131.716 681.153 130.954 678.676 129.43C676.198 127.907 674.274 125.776 672.905 123.037C671.535 120.297 670.851 117.097 670.851 113.434C670.851 109.757 671.535 106.54 672.905 103.786C674.274 101.031 676.198 98.8924 678.676 97.369C681.153 95.8455 684.054 95.0838 687.378 95.0838C690.701 95.0838 693.602 95.8455 696.08 97.369C698.557 98.8924 700.481 101.031 701.85 103.786C703.22 106.54 703.905 109.757 703.905 113.434C703.905 117.097 703.22 120.297 701.85 123.037C700.481 125.776 698.557 127.907 696.08 129.43C693.602 130.954 690.701 131.716 687.378 131.716ZM687.401 125.922C689.555 125.922 691.34 125.353 692.756 124.214C694.172 123.075 695.218 121.559 695.895 119.667C696.587 117.774 696.934 115.689 696.934 113.411C696.934 111.149 696.587 109.072 695.895 107.179C695.218 105.271 694.172 103.74 692.756 102.586C691.34 101.431 689.555 100.854 687.401 100.854C685.231 100.854 683.43 101.431 681.999 102.586C680.584 103.74 679.53 105.271 678.837 107.179C678.16 109.072 677.821 111.149 677.821 113.411C677.821 115.689 678.16 117.774 678.837 119.667C679.53 121.559 680.584 123.075 681.999 124.214C683.43 125.353 685.231 125.922 687.401 125.922Z" fill="#2470ff"/>
<path d="M711.608 144.295V95.5455H718.348V101.293H718.925C719.326 100.554 719.903 99.7003 720.657 98.7308C721.411 97.7614 722.457 96.915 723.796 96.1918C725.135 95.4531 726.904 95.0838 729.105 95.0838C731.967 95.0838 734.521 95.8071 736.768 97.2536C739.015 98.7001 740.777 100.785 742.054 103.509C743.347 106.233 743.993 109.51 743.993 113.342C743.993 117.174 743.354 120.459 742.077 123.198C740.8 125.922 739.046 128.022 736.814 129.5C734.583 130.962 732.036 131.692 729.174 131.692C727.02 131.692 725.258 131.331 723.888 130.608C722.534 129.884 721.472 129.038 720.703 128.069C719.933 127.099 719.341 126.237 718.925 125.483H718.51V144.295H711.608ZM718.371 113.273C718.371 115.766 718.733 117.951 719.456 119.828C720.18 121.705 721.226 123.175 722.596 124.237C723.965 125.283 725.642 125.806 727.628 125.806C729.69 125.806 731.413 125.26 732.798 124.168C734.183 123.06 735.229 121.559 735.937 119.667C736.66 117.774 737.022 115.643 737.022 113.273C737.022 110.934 736.668 108.833 735.96 106.971C735.268 105.109 734.221 103.64 732.821 102.562C731.436 101.485 729.705 100.947 727.628 100.947C725.627 100.947 723.934 101.462 722.549 102.493C721.18 103.524 720.141 104.963 719.433 106.81C718.725 108.656 718.371 110.811 718.371 113.273Z" fill="#2470ff"/>
<path d="M786.77 83.7273V131H779.615V90.8828H779.338L768.027 98.2692V91.4368L779.823 83.7273H786.77Z" fill="#2470ff"/>
<path d="M816.016 131.785C812.369 131.769 809.253 130.808 806.667 128.9C804.082 126.991 802.105 124.214 800.735 120.567C799.366 116.92 798.681 112.526 798.681 107.387C798.681 102.262 799.366 97.8845 800.735 94.2528C802.12 90.6212 804.105 87.8513 806.69 85.9432C809.291 84.035 812.399 83.081 816.016 83.081C819.632 83.081 822.733 84.0427 825.318 85.9663C827.903 87.8744 829.881 90.6443 831.25 94.2759C832.635 97.8922 833.328 102.262 833.328 107.387C833.328 112.542 832.643 116.943 831.273 120.59C829.904 124.221 827.926 126.999 825.341 128.923C822.756 130.831 819.647 131.785 816.016 131.785ZM816.016 125.622C819.216 125.622 821.717 124.06 823.518 120.936C825.333 117.812 826.241 113.296 826.241 107.387C826.241 103.463 825.826 100.147 824.995 97.4382C824.179 94.7145 823.002 92.6525 821.463 91.2521C819.94 89.8364 818.124 89.1285 816.016 89.1285C812.83 89.1285 810.33 90.6982 808.514 93.8374C806.698 96.9766 805.783 101.493 805.767 107.387C805.767 111.326 806.175 114.658 806.99 117.381C807.821 120.09 808.999 122.144 810.522 123.544C812.046 124.929 813.877 125.622 816.016 125.622Z" fill="#2470ff"/>
<path d="M857.974 131.785C854.327 131.769 851.211 130.808 848.625 128.9C846.04 126.991 844.063 124.214 842.693 120.567C841.324 116.92 840.639 112.526 840.639 107.387C840.639 102.262 841.324 97.8845 842.693 94.2528C844.078 90.6212 846.063 87.8513 848.648 85.9432C851.249 84.035 854.357 83.081 857.974 83.081C861.59 83.081 864.691 84.0427 867.276 85.9663C869.861 87.8744 871.839 90.6443 873.208 94.2759C874.593 97.8922 875.286 102.262 875.286 107.387C875.286 112.542 874.601 116.943 873.231 120.59C871.862 124.221 869.884 126.999 867.299 128.923C864.714 130.831 861.605 131.785 857.974 131.785ZM857.974 125.622C861.174 125.622 863.675 124.06 865.476 120.936C867.291 117.812 868.199 113.296 868.199 107.387C868.199 103.463 867.784 100.147 866.953 97.4382C866.137 94.7145 864.96 92.6525 863.421 91.2521C861.898 89.8364 860.082 89.1285 857.974 89.1285C854.788 89.1285 852.288 90.6982 850.472 93.8374C848.656 96.9766 847.741 101.493 847.725 107.387C847.725 111.326 848.133 114.658 848.948 117.381C849.779 120.09 850.957 122.144 852.48 123.544C854.004 124.929 855.835 125.622 857.974 125.622Z" fill="#2470ff"/>
<path d="M915.703 131.716C912.271 131.716 909.317 130.938 906.839 129.384C904.377 127.815 902.484 125.653 901.161 122.898C899.837 120.144 899.176 116.989 899.176 113.434C899.176 109.833 899.853 106.656 901.207 103.901C902.561 101.131 904.469 98.9693 906.931 97.4151C909.394 95.8609 912.294 95.0838 915.634 95.0838C918.326 95.0838 920.727 95.5839 922.835 96.5842C924.943 97.569 926.644 98.954 927.936 100.739C929.244 102.524 930.022 104.609 930.268 106.994H923.551C923.181 105.332 922.335 103.901 921.012 102.701C919.704 101.501 917.949 100.901 915.749 100.901C913.825 100.901 912.14 101.408 910.694 102.424C909.263 103.424 908.147 104.855 907.347 106.717C906.547 108.564 906.147 110.749 906.147 113.273C906.147 115.858 906.539 118.089 907.324 119.967C908.109 121.844 909.217 123.298 910.648 124.329C912.094 125.36 913.795 125.876 915.749 125.876C917.057 125.876 918.242 125.637 919.304 125.16C920.381 124.668 921.281 123.968 922.004 123.06C922.743 122.152 923.258 121.059 923.551 119.782H930.268C930.022 122.075 929.275 124.121 928.029 125.922C926.782 127.722 925.113 129.138 923.02 130.169C920.942 131.2 918.503 131.716 915.703 131.716Z" fill="#2470ff"/>
<path d="M937.648 131V95.5455H944.319V101.178H944.688C945.335 99.2694 946.474 97.7691 948.105 96.6765C949.751 95.5685 951.613 95.0146 953.691 95.0146C954.121 95.0146 954.629 95.0299 955.214 95.0607C955.814 95.0915 956.284 95.13 956.622 95.1761V101.778C956.345 101.701 955.853 101.616 955.145 101.524C954.437 101.416 953.729 101.362 953.021 101.362C951.39 101.362 949.936 101.708 948.659 102.401C947.397 103.078 946.397 104.024 945.658 105.24C944.919 106.44 944.55 107.81 944.55 109.349V131H937.648Z" fill="#2470ff"/>
<path d="M968.036 144.295C967.005 144.295 966.067 144.211 965.22 144.042C964.374 143.888 963.743 143.718 963.328 143.534L964.989 137.879C966.251 138.217 967.375 138.363 968.359 138.317C969.344 138.271 970.214 137.902 970.968 137.209C971.737 136.517 972.414 135.386 972.999 133.816L973.853 131.462L960.881 95.5455H968.267L977.246 123.06H977.615L986.595 95.5455H994.004L979.393 135.732C978.716 137.578 977.854 139.14 976.808 140.418C975.761 141.71 974.515 142.68 973.068 143.326C971.622 143.972 969.944 144.295 968.036 144.295Z" fill="#2470ff"/>
<path d="M1000.49 144.295V95.5455H1007.23V101.293H1007.81C1008.21 100.554 1008.78 99.7003 1009.54 98.7308C1010.29 97.7614 1011.34 96.915 1012.68 96.1918C1014.02 95.4531 1015.79 95.0838 1017.99 95.0838C1020.85 95.0838 1023.4 95.8071 1025.65 97.2536C1027.9 98.7001 1029.66 100.785 1030.94 103.509C1032.23 106.233 1032.87 109.51 1032.87 113.342C1032.87 117.174 1032.24 120.459 1030.96 123.198C1029.68 125.922 1027.93 128.022 1025.7 129.5C1023.46 130.962 1020.92 131.692 1018.06 131.692C1015.9 131.692 1014.14 131.331 1012.77 130.608C1011.42 129.884 1010.35 129.038 1009.58 128.069C1008.82 127.099 1008.22 126.237 1007.81 125.483H1007.39V144.295H1000.49ZM1007.25 113.273C1007.25 115.766 1007.61 117.951 1008.34 119.828C1009.06 121.705 1010.11 123.175 1011.48 124.237C1012.85 125.283 1014.52 125.806 1016.51 125.806C1018.57 125.806 1020.29 125.26 1021.68 124.168C1023.06 123.06 1024.11 121.559 1024.82 119.667C1025.54 117.774 1025.9 115.643 1025.9 113.273C1025.9 110.934 1025.55 108.833 1024.84 106.971C1024.15 105.109 1023.1 103.64 1021.7 102.562C1020.32 101.485 1018.59 100.947 1016.51 100.947C1014.51 100.947 1012.82 101.462 1011.43 102.493C1010.06 103.524 1009.02 104.963 1008.32 106.81C1007.61 108.656 1007.25 110.811 1007.25 113.273Z" fill="#2470ff"/>
<path d="M1057.16 95.5455V101.085H1037.79V95.5455H1057.16ZM1042.98 87.0511H1049.89V120.59C1049.89 121.929 1050.09 122.937 1050.49 123.614C1050.89 124.275 1051.4 124.729 1052.03 124.975C1052.68 125.206 1053.38 125.322 1054.13 125.322C1054.69 125.322 1055.17 125.283 1055.59 125.206C1056 125.129 1056.33 125.068 1056.56 125.022L1057.8 130.723C1057.4 130.877 1056.83 131.031 1056.1 131.185C1055.36 131.354 1054.43 131.446 1053.33 131.462C1051.51 131.492 1049.82 131.169 1048.25 130.492C1046.68 129.815 1045.41 128.769 1044.44 127.353C1043.47 125.937 1042.98 124.16 1042.98 122.021V87.0511Z" fill="#2470ff"/>
<path d="M1079.35 131.716C1076.02 131.716 1073.12 130.954 1070.64 129.43C1068.17 127.907 1066.24 125.776 1064.87 123.037C1063.5 120.297 1062.82 117.097 1062.82 113.434C1062.82 109.757 1063.5 106.54 1064.87 103.786C1066.24 101.031 1068.17 98.8924 1070.64 97.369C1073.12 95.8455 1076.02 95.0838 1079.35 95.0838C1082.67 95.0838 1085.57 95.8455 1088.05 97.369C1090.52 98.8924 1092.45 101.031 1093.82 103.786C1095.19 106.54 1095.87 109.757 1095.87 113.434C1095.87 117.097 1095.19 120.297 1093.82 123.037C1092.45 125.776 1090.52 127.907 1088.05 129.43C1085.57 130.954 1082.67 131.716 1079.35 131.716ZM1079.37 125.922C1081.52 125.922 1083.31 125.353 1084.72 124.214C1086.14 123.075 1087.19 121.559 1087.86 119.667C1088.56 117.774 1088.9 115.689 1088.9 113.411C1088.9 111.149 1088.56 109.072 1087.86 107.179C1087.19 105.271 1086.14 103.74 1084.72 102.586C1083.31 101.431 1081.52 100.854 1079.37 100.854C1077.2 100.854 1075.4 101.431 1073.97 102.586C1072.55 103.74 1071.5 105.271 1070.8 107.179C1070.13 109.072 1069.79 111.149 1069.79 113.411C1069.79 115.689 1070.13 117.774 1070.8 119.667C1071.5 121.559 1072.55 123.075 1073.97 124.214C1075.4 125.353 1077.2 125.922 1079.37 125.922Z" fill="#2470ff"/>
<path d="M1118.51 131.716C1115.08 131.716 1112.12 130.938 1109.65 129.384C1107.18 127.815 1105.29 125.653 1103.97 122.898C1102.65 120.144 1101.98 116.989 1101.98 113.434C1101.98 109.833 1102.66 106.656 1104.01 103.901C1105.37 101.131 1107.28 98.9693 1109.74 97.4151C1112.2 95.8609 1115.1 95.0838 1118.44 95.0838C1121.13 95.0838 1123.53 95.5839 1125.64 96.5842C1127.75 97.569 1129.45 98.954 1130.74 100.739C1132.05 102.524 1132.83 104.609 1133.08 106.994H1126.36C1125.99 105.332 1125.14 103.901 1123.82 102.701C1122.51 101.501 1120.76 100.901 1118.56 100.901C1116.63 100.901 1114.95 101.408 1113.5 102.424C1112.07 103.424 1110.95 104.855 1110.15 106.717C1109.35 108.564 1108.95 110.749 1108.95 113.273C1108.95 115.858 1109.35 118.089 1110.13 119.967C1110.92 121.844 1112.02 123.298 1113.46 124.329C1114.9 125.36 1116.6 125.876 1118.56 125.876C1119.86 125.876 1121.05 125.637 1122.11 125.16C1123.19 124.668 1124.09 123.968 1124.81 123.06C1125.55 122.152 1126.07 121.059 1126.36 119.782H1133.08C1132.83 122.075 1132.08 124.121 1130.84 125.922C1129.59 127.722 1127.92 129.138 1125.83 130.169C1123.75 131.2 1121.31 131.716 1118.51 131.716Z" fill="#2470ff"/>
<path d="M1162.92 116.297V95.5455H1169.84V131H1163.05V124.86H1162.68C1161.87 126.753 1160.56 128.33 1158.76 129.592C1156.98 130.838 1154.75 131.462 1152.09 131.462C1149.81 131.462 1147.8 130.962 1146.04 129.961C1144.3 128.946 1142.93 127.445 1141.93 125.46C1140.95 123.475 1140.46 121.021 1140.46 118.097V95.5455H1147.36V117.266C1147.36 119.682 1148.03 121.605 1149.37 123.037C1150.7 124.468 1152.44 125.183 1154.58 125.183C1155.88 125.183 1157.16 124.86 1158.44 124.214C1159.73 123.567 1160.8 122.59 1161.65 121.282C1162.51 119.974 1162.93 118.312 1162.92 116.297Z" fill="#2470ff"/>
<path d="M1179.11 131V95.5455H1185.78V101.178H1186.15C1186.8 99.2694 1187.94 97.7691 1189.57 96.6765C1191.22 95.5685 1193.08 95.0146 1195.16 95.0146C1195.59 95.0146 1196.09 95.0299 1196.68 95.0607C1197.28 95.0915 1197.75 95.13 1198.09 95.1761V101.778C1197.81 101.701 1197.32 101.616 1196.61 101.524C1195.9 101.416 1195.19 101.362 1194.49 101.362C1192.85 101.362 1191.4 101.708 1190.12 102.401C1188.86 103.078 1187.86 104.024 1187.12 105.24C1186.38 106.44 1186.01 107.81 1186.01 109.349V131H1179.11Z" fill="#2470ff"/>
<path d="M1204.06 131V95.5455H1210.73V101.178H1211.1C1211.75 99.2694 1212.88 97.7691 1214.52 96.6765C1216.16 95.5685 1218.02 95.0146 1220.1 95.0146C1220.53 95.0146 1221.04 95.0299 1221.63 95.0607C1222.23 95.0915 1222.69 95.13 1223.03 95.1761V101.778C1222.76 101.701 1222.26 101.616 1221.56 101.524C1220.85 101.416 1220.14 101.362 1219.43 101.362C1217.8 101.362 1216.35 101.708 1215.07 102.401C1213.81 103.078 1212.81 104.024 1212.07 105.24C1211.33 106.44 1210.96 107.81 1210.96 109.349V131H1204.06Z" fill="#2470ff"/>
<path d="M1243.02 131.716C1239.52 131.716 1236.52 130.969 1233.99 129.477C1231.48 127.969 1229.54 125.853 1228.17 123.129C1226.82 120.39 1226.14 117.181 1226.14 113.504C1226.14 109.872 1226.82 106.671 1228.17 103.901C1229.54 101.131 1231.45 98.9693 1233.9 97.4151C1236.36 95.8609 1239.24 95.0838 1242.53 95.0838C1244.53 95.0838 1246.47 95.4147 1248.35 96.0763C1250.23 96.738 1251.91 97.7768 1253.4 99.1925C1254.9 100.608 1256.07 102.447 1256.94 104.709C1257.8 106.956 1258.23 109.687 1258.23 112.903V115.35H1230.04V110.18H1251.46C1251.46 108.364 1251.1 106.756 1250.36 105.355C1249.62 103.94 1248.58 102.824 1247.24 102.009C1245.92 101.193 1244.36 100.785 1242.58 100.785C1240.64 100.785 1238.95 101.262 1237.5 102.216C1236.07 103.155 1234.96 104.386 1234.18 105.909C1233.41 107.417 1233.02 109.056 1233.02 110.826V114.865C1233.02 117.235 1233.44 119.251 1234.27 120.913C1235.11 122.575 1236.29 123.844 1237.8 124.722C1239.31 125.583 1241.07 126.014 1243.09 126.014C1244.39 126.014 1245.59 125.83 1246.66 125.46C1247.74 125.076 1248.67 124.506 1249.46 123.752C1250.24 122.998 1250.84 122.067 1251.26 120.959L1257.79 122.136C1257.27 124.06 1256.33 125.745 1254.97 127.191C1253.63 128.623 1251.95 129.738 1249.92 130.538C1247.9 131.323 1245.6 131.716 1243.02 131.716Z" fill="#2470ff"/>
<path d="M1272.79 109.949V131H1265.89V95.5455H1272.51V101.316H1272.95C1273.76 99.4387 1275.04 97.9306 1276.78 96.7919C1278.53 95.6532 1280.74 95.0838 1283.41 95.0838C1285.82 95.0838 1287.94 95.5916 1289.75 96.6072C1291.57 97.6075 1292.98 99.1001 1293.98 101.085C1294.98 103.07 1295.48 105.525 1295.48 108.449V131H1288.58V109.279C1288.58 106.71 1287.91 104.701 1286.57 103.255C1285.23 101.793 1283.39 101.062 1281.05 101.062C1279.45 101.062 1278.03 101.408 1276.78 102.101C1275.55 102.793 1274.57 103.809 1273.85 105.148C1273.14 106.471 1272.79 108.071 1272.79 109.949Z" fill="#2470ff"/>
<path d="M1319.67 131.716C1316.24 131.716 1313.28 130.938 1310.8 129.384C1308.34 127.815 1306.45 125.653 1305.13 122.898C1303.8 120.144 1303.14 116.989 1303.14 113.434C1303.14 109.833 1303.82 106.656 1305.17 103.901C1306.53 101.131 1308.43 98.9693 1310.9 97.4151C1313.36 95.8609 1316.26 95.0838 1319.6 95.0838C1322.29 95.0838 1324.69 95.5839 1326.8 96.5842C1328.91 97.569 1330.61 98.954 1331.9 100.739C1333.21 102.524 1333.99 104.609 1334.23 106.994H1327.52C1327.15 105.332 1326.3 103.901 1324.98 102.701C1323.67 101.501 1321.91 100.901 1319.71 100.901C1317.79 100.901 1316.11 101.408 1314.66 102.424C1313.23 103.424 1312.11 104.855 1311.31 106.717C1310.51 108.564 1310.11 110.749 1310.11 113.273C1310.11 115.858 1310.5 118.089 1311.29 119.967C1312.07 121.844 1313.18 123.298 1314.61 124.329C1316.06 125.36 1317.76 125.876 1319.71 125.876C1321.02 125.876 1322.21 125.637 1323.27 125.16C1324.35 124.668 1325.25 123.968 1325.97 123.06C1326.71 122.152 1327.22 121.059 1327.52 119.782H1334.23C1333.99 122.075 1333.24 124.121 1331.99 125.922C1330.75 127.722 1329.08 129.138 1326.98 130.169C1324.91 131.2 1322.47 131.716 1319.67 131.716Z" fill="#2470ff"/>
<path d="M1341.61 131V95.5455H1348.51V131H1341.61ZM1345.1 90.0749C1343.9 90.0749 1342.87 89.6748 1342.01 88.8746C1341.16 88.0591 1340.74 87.0896 1340.74 85.9663C1340.74 84.8275 1341.16 83.8581 1342.01 83.0579C1342.87 82.2423 1343.9 81.8345 1345.1 81.8345C1346.3 81.8345 1347.32 82.2423 1348.17 83.0579C1349.03 83.8581 1349.46 84.8275 1349.46 85.9663C1349.46 87.0896 1349.03 88.0591 1348.17 88.8746C1347.32 89.6748 1346.3 90.0749 1345.1 90.0749Z" fill="#2470ff"/>
<path d="M1373.08 131.716C1369.59 131.716 1366.58 130.969 1364.06 129.477C1361.55 127.969 1359.61 125.853 1358.24 123.129C1356.88 120.39 1356.21 117.181 1356.21 113.504C1356.21 109.872 1356.88 106.671 1358.24 103.901C1359.61 101.131 1361.52 98.9693 1363.96 97.4151C1366.42 95.8609 1369.3 95.0838 1372.6 95.0838C1374.6 95.0838 1376.53 95.4147 1378.41 96.0763C1380.29 96.738 1381.97 97.7768 1383.47 99.1925C1384.96 100.608 1386.14 102.447 1387 104.709C1387.86 106.956 1388.29 109.687 1388.29 112.903V115.35H1360.11V110.18H1381.53C1381.53 108.364 1381.16 106.756 1380.42 105.355C1379.68 103.94 1378.64 102.824 1377.3 102.009C1375.98 101.193 1374.43 100.785 1372.64 100.785C1370.7 100.785 1369.01 101.262 1367.56 102.216C1366.13 103.155 1365.02 104.386 1364.24 105.909C1363.47 107.417 1363.09 109.056 1363.09 110.826V114.865C1363.09 117.235 1363.5 119.251 1364.33 120.913C1365.18 122.575 1366.36 123.844 1367.86 124.722C1369.37 125.583 1371.13 126.014 1373.15 126.014C1374.46 126.014 1375.65 125.83 1376.73 125.46C1377.8 125.076 1378.74 124.506 1379.52 123.752C1380.31 122.998 1380.91 122.067 1381.32 120.959L1387.85 122.136C1387.33 124.06 1386.39 125.745 1385.04 127.191C1383.7 128.623 1382.01 129.738 1379.98 130.538C1377.97 131.323 1375.67 131.716 1373.08 131.716Z" fill="#2470ff"/>
<path d="M1422.52 104.201L1416.26 105.309C1416 104.509 1415.58 103.747 1415.02 103.024C1414.46 102.301 1413.71 101.708 1412.75 101.247C1411.8 100.785 1410.61 100.554 1409.18 100.554C1407.22 100.554 1405.59 100.993 1404.28 101.87C1402.97 102.732 1402.32 103.847 1402.32 105.217C1402.32 106.402 1402.76 107.356 1403.64 108.079C1404.51 108.802 1405.93 109.395 1407.88 109.857L1413.51 111.149C1416.78 111.903 1419.21 113.065 1420.81 114.635C1422.41 116.204 1423.21 118.243 1423.21 120.751C1423.21 122.875 1422.59 124.768 1421.36 126.43C1420.15 128.076 1418.45 129.369 1416.26 130.308C1414.09 131.246 1411.58 131.716 1408.71 131.716C1404.74 131.716 1401.5 130.869 1399 129.176C1396.49 127.468 1394.95 125.045 1394.38 121.906L1401.05 120.89C1401.47 122.629 1402.32 123.944 1403.61 124.837C1404.91 125.714 1406.59 126.153 1408.67 126.153C1410.93 126.153 1412.74 125.683 1414.09 124.745C1415.45 123.791 1416.12 122.629 1416.12 121.259C1416.12 120.151 1415.71 119.22 1414.88 118.466C1414.06 117.712 1412.81 117.143 1411.11 116.758L1405.11 115.442C1401.8 114.688 1399.36 113.488 1397.77 111.842C1396.2 110.195 1395.42 108.11 1395.42 105.586C1395.42 103.493 1396 101.662 1397.17 100.093C1398.34 98.5231 1399.96 97.2997 1402.02 96.4226C1404.08 95.5301 1406.44 95.0838 1409.11 95.0838C1412.94 95.0838 1415.95 95.9148 1418.15 97.5767C1420.35 99.2232 1421.81 101.431 1422.52 104.201Z" fill="#2470ff"/>
<path d="M1435.34 131.439C1434.08 131.439 1433 130.992 1432.09 130.1C1431.18 129.192 1430.73 128.099 1430.73 126.822C1430.73 125.56 1431.18 124.483 1432.09 123.591C1433 122.683 1434.08 122.229 1435.34 122.229C1436.61 122.229 1437.69 122.683 1438.6 123.591C1439.51 124.483 1439.96 125.56 1439.96 126.822C1439.96 127.668 1439.75 128.446 1439.32 129.153C1438.9 129.846 1438.35 130.4 1437.65 130.815C1436.96 131.231 1436.19 131.439 1435.34 131.439Z" fill="#2470ff"/>
</svg>
